<?xml version="1.0" encoding="utf-8"?>
<svg height="1182" version="1.1" width="1182" xmlns="http://www.w3.org/2000/svg">
<path d="M0 0 C1.09054687 0.23525391 2.18109375 0.47050781 3.3046875 0.71289062 C63.55905561 14.08228893 63.55905561 14.08228893 77.0234375 32.84375 C77.56162109 33.58496094 78.09980469 34.32617188 78.65429688 35.08984375 C79.22212891 35.88519531 79.78996094 36.68054688 80.375 37.5 C81.6214991 39.21940046 82.8689253 40.93812911 84.1171875 42.65625 C84.7575293 43.54054687 85.39787109 44.42484375 86.05761719 45.3359375 C89.16011763 49.59115178 92.33026876 53.79476537 95.5 58 C100.35280649 64.45018601 105.16412164 70.9283477 109.9375 77.4375 C115.5476984 85.08314453 121.2752143 92.63338082 127.03881836 100.16381836 C132.00387762 106.66230164 136.87121343 113.22641502 141.70214844 119.82495117 C146.14481102 125.87779513 150.68378637 131.85247959 155.25 137.8125 C159.99184332 144.00373694 164.64769384 150.2301059 169.1315918 156.61010742 C172.30457725 161.09414598 175.60550986 165.47394742 178.93798828 169.84057617 C180.34734811 171.68770888 181.75074367 173.5394085 183.14794922 175.39575195 C186.01079589 179.18461175 188.83862356 182.92045154 192.09765625 186.37890625 C195.8630425 190.5633154 197.95787865 193.16497404 198.08984375 198.9140625 C197.79436559 201.96111626 197.29512852 204.9571641 196.7734375 207.97265625 C190.43068924 245.23815038 203.54533415 286.48045427 224.21875 317.30859375 C226.39874048 320.28238512 228.65976388 323.15068654 231 326 C231.45632813 326.56170898 231.91265625 327.12341797 232.3828125 327.70214844 C256.57668832 357.34611527 291.1033366 378.60167283 329.21142578 384.39306641 C338.39794153 385.96408314 341.99933481 392.08235423 347.125 399.3125 C347.68614502 400.10285645 348.24729004 400.89321289 348.82543945 401.70751953 C349.9828009 403.34011814 351.13847687 404.97391288 352.29248047 406.60888672 C353.9061724 408.86860917 355.55675212 411.0950293 357.22265625 413.31640625 C358.21149716 414.66886182 359.19980472 416.02170756 360.1875 417.375 C360.87320068 418.26312378 360.87320068 418.26312378 361.57275391 419.16918945 C371.18034926 432.58946778 368.40824226 457.06035676 365.87133789 472.46850586 C358.28641573 512.1093312 333.08614582 560.79921876 298.9609375 584.06640625 C254.76407735 612.92847191 205.24757911 631.72818808 153.1875 640.25 C151.81392334 640.47659302 151.81392334 640.47659302 150.41259766 640.70776367 C132.145112 643.52462331 113.9625653 644.3798021 95.5 644.3125 C94.4033905 644.31001251 93.30678101 644.30752502 92.17694092 644.30496216 C53.0995878 644.1682784 15.1250099 638.36730501 -22 626 C-23.04124023 625.65743164 -24.08248047 625.31486328 -25.15527344 624.96191406 C-48.92220558 617.05434253 -71.29166755 606.44676398 -93 594 C-93.1861084 594.74548096 -93.3722168 595.49096191 -93.56396484 596.2590332 C-93.81871582 597.24218506 -94.0734668 598.22533691 -94.3359375 599.23828125 C-94.5839209 600.21063721 -94.8319043 601.18299316 -95.08740234 602.18481445 C-97.83302518 610.65452471 -105.8012362 618.10902077 -113.4375 622.35546875 C-124.12604921 627.22508739 -133.6866609 627.02858687 -144.8125 623.25 C-180.50084127 609.25457205 -202.39744164 572.6304565 -217.04907227 539.18017578 C-224.67414647 521.36568057 -230.2916771 503.06465532 -234.33447266 484.11816406 C-234.7566219 482.140288 -235.19221158 480.16519446 -235.64599609 478.19433594 C-239.31782264 461.89387201 -239.39294491 445.56702463 -239.4375 428.9375 C-239.44376404 427.84432465 -239.45002808 426.75114929 -239.45648193 425.62484741 C-239.63243649 376.97614895 -229.82128887 328.14344242 -195.3125 291.9375 C-187.40202399 284.19979569 -178.14672962 277.46456103 -168 273 C-166.33015706 280.74342989 -165.15559532 288.5137787 -164.09228516 296.36108398 C-163.82350807 298.31790352 -163.82350807 298.31790352 -163.54930115 300.31425476 C-162.95786918 304.62423463 -162.3732189 308.93512276 -161.7890625 313.24609375 C-161.58424982 314.75498384 -161.37940923 316.26387015 -161.17454147 317.77275276 C-160.31740353 324.08894198 -159.46193466 330.40535304 -158.61110878 336.7223959 C-157.51949201 344.82715771 -156.4227334 352.93112529 -155.30957031 361.03295898 C-150.39863785 396.79477272 -145.90334487 432.4022281 -143.54484367 468.44213486 C-141.55993428 513.70217659 -141.55993428 513.70217659 -123.89453125 553.70214844 C-123.3528833 554.32265076 -122.81123535 554.94315308 -122.25317383 555.5824585 C-121.83962646 556.05024719 -121.4260791 556.51803589 -121 557 C-134.12917828 468.96834901 -147.26196199 380.93723581 -165.11183548 261.32824135 C-165.22277193 260.58490459 -165.33370839 259.84156784 -165.44800656 259.07570573 C-165.55887044 258.33285527 -165.66973432 257.59000481 -165.78395772 256.82464373 C-165.89474012 256.08233915 -166.00552252 255.34003457 -166.11966196 254.57523592 C-166.34316059 253.07766926 -166.56665939 251.58010263 -166.79015836 250.08253603 C-168.44777492 238.9755718 -170.10526955 227.86858938 -171.76269531 216.76159668 C-173.67749585 203.92985069 -175.59246654 191.09813011 -177.50763977 178.26643974 C-178.67871546 170.42018419 -179.84965879 162.57390892 -181.02035558 154.72759682 C-181.38674772 152.27242318 -181.75326445 149.81726813 -182.11990798 147.36213201 C-183.00772422 141.41686183 -183.89400536 135.47137286 -184.77659798 129.52532482 C-186.46513466 118.16567735 -188.1773338 106.81040367 -189.94555438 95.46290559 C-190.71051945 90.55313122 -191.46735684 85.6421128 -192.22251322 80.73082121 C-192.74191394 77.3573462 -193.26621565 73.98478273 -193.80185342 70.61384475 C-194.38982814 66.90165776 -194.96238888 63.187392 -195.53170776 59.4723053 C-195.71131003 58.3652359 -195.8909123 57.2581665 -196.07595706 56.11754954 C-196.2286352 55.10182033 -196.38131334 54.08609113 -196.53861809 53.03958225 C-196.67676363 52.15787627 -196.81490917 51.27617028 -196.95724094 50.36774594 C-197.00695966 47.61461494 -196.48580353 46.2956714 -195 44 C-185.75925511 35.58432162 -174.76072522 29.2438776 -164 23 C-163.36336426 22.62601074 -162.72672852 22.25202148 -162.07080078 21.86669922 C-114.56155226 -5.80127755 -53.03933425 -11.45577458 0 0 Z M-52.90454102 87.07617188 C-53.60448685 87.29740723 -54.30443268 87.51864258 -55.02558899 87.74658203 C-57.35298883 88.48329005 -59.6784099 89.22605742 -62.00390625 89.96875 C-63.64114183 90.48807815 -65.2785089 91.00699194 -66.91600037 91.5255127 C-71.25225697 92.89967932 -75.5869168 94.27881451 -79.92120361 95.65917969 C-86.75837117 97.83569777 -93.59794646 100.0046466 -100.43732834 102.17419434 C-102.10483608 102.70330236 -103.7722583 103.23268002 -105.43959427 103.7623291 C-117.13514288 107.4774973 -128.84424381 111.14130893 -140.58729553 114.70397949 C-142.03089699 115.1434491 -142.03089699 115.1434491 -143.50366211 115.59179688 C-144.33143661 115.84215698 -145.15921112 116.09251709 -146.0120697 116.35046387 C-148.04248712 116.95986654 -148.04248712 116.95986654 -150 118 C-148.59966898 130.81428788 -146.81780545 143.55965976 -144.91333008 156.30810547 C-144.43008509 159.54973962 -143.95416209 162.79239942 -143.47851562 166.03515625 C-143.17231279 168.09641925 -142.86568857 170.1576197 -142.55859375 172.21875 C-142.41691269 173.18832642 -142.27523163 174.15790283 -142.1292572 175.15686035 C-141.99564285 176.0428894 -141.8620285 176.92891846 -141.72436523 177.84179688 C-141.60826401 178.62325073 -141.49216278 179.40470459 -141.37254333 180.20983887 C-141.1674703 182.01526586 -141.1674703 182.01526586 -140 183 C-93.19566988 182.86223516 -44.65521077 170.69295991 -2 152 C-5.93378358 144.42619552 -10.31436295 137.23741374 -14.90014648 130.0456543 C-20.1279347 121.83669776 -25.22160842 113.54704177 -30.30419922 105.24780273 C-31.57473731 103.1758409 -32.84903932 101.10618151 -34.12744141 99.0390625 C-35.40912936 96.95895146 -36.67638533 94.86989778 -37.93115234 92.7734375 C-38.54555176 91.76539063 -39.15995117 90.75734375 -39.79296875 89.71875 C-40.61124146 88.3565332 -40.61124146 88.3565332 -41.44604492 86.96679688 C-41.9588501 86.31775391 -42.47165527 85.66871094 -43 85 C-46.57897408 85 -49.53757541 85.99382819 -52.90454102 87.07617188 Z M60.98242188 258.58569336 C60.15291016 258.91706299 59.32339844 259.24843262 58.46875 259.58984375 C57.05553467 260.14224731 57.05553467 260.14224731 55.61376953 260.70581055 C54.58622559 261.11226807 53.55868164 261.51872559 52.5 261.9375 C-4.70890094 283.90878472 -63.31906588 289.00604972 -124 291 C-122.39827357 306.61185398 -119.85594305 322.07105245 -117.375 337.5625 C-116.94982215 340.2310088 -116.52568007 342.89968188 -116.1015625 345.56835938 C-115.0712861 352.04614712 -114.03718385 358.52331484 -113 365 C-36.57909879 365.99639447 34.70211921 353.84359374 107 329 C106.35276423 325.69316221 105.12761758 323.2841066 103.3671875 320.421875 C102.81595215 319.52049805 102.2647168 318.61912109 101.69677734 317.69042969 C101.09559082 316.72008789 100.4944043 315.74974609 99.875 314.75 C99.25189941 313.73583008 98.62879883 312.72166016 97.98681641 311.67675781 C95.99841229 308.44665614 94.00089762 305.22237581 92 302 C91.360625 300.97003906 90.72125 299.94007813 90.0625 298.87890625 C86.32653102 292.86920206 82.5716451 286.87161257 78.80615234 280.88037109 C77.01570982 278.02505332 75.23534604 275.16366446 73.45703125 272.30078125 C72.36733323 270.55459655 71.27749692 268.80849814 70.1875 267.0625 C69.44089111 265.8544873 69.44089111 265.8544873 68.67919922 264.62207031 C67.99301514 263.52717285 67.99301514 263.52717285 67.29296875 262.41015625 C66.8961792 261.77215088 66.49938965 261.13414551 66.09057617 260.47680664 C64.47393492 258.28762756 63.62688672 257.81801776 60.98242188 258.58569336 Z M168.62890625 435.25 C112.29825944 451.56052203 54.42240983 460.51783704 -4 465 C-5.12873535 465.0923291 -6.2574707 465.1846582 -7.42041016 465.27978516 C-36.86833878 467.66258154 -66.47667274 468.1247565 -96 469 C-95.41426589 477.89046079 -94.21734577 486.59058737 -92.75 495.375 C-92.52925659 496.71584152 -92.30888631 498.05674452 -92.08886719 499.39770508 C-91.63113918 502.18147524 -91.17035865 504.964715 -90.70703125 507.74755859 C-90.11418353 511.30864233 -89.52701436 514.8706326 -88.9418335 518.4329834 C-88.48861344 521.19044957 -88.03352547 523.94760458 -87.57775879 526.70465088 C-87.25546766 528.65442218 -86.9338801 530.60430974 -86.61230469 532.55419922 C-86.41540039 533.73643066 -86.21849609 534.91866211 -86.015625 536.13671875 C-85.84321289 537.17530029 -85.67080078 538.21388184 -85.49316406 539.28393555 C-85.08047378 541.55679661 -84.59604456 543.76949993 -84 546 C-64.89009811 546.21942985 -45.83780427 545.55338723 -26.75 544.75 C-25.9582135 544.71705589 -25.166427 544.68411179 -24.35064697 544.65016937 C58.31157227 541.21076411 143.09989849 537.18924423 223 514 C219.41225213 507.27834304 215.68466745 500.71959546 211.5625 494.3125 C210.50595251 492.65400112 209.44999087 490.99512891 208.39453125 489.3359375 C207.8423291 488.46936523 207.29012695 487.60279297 206.72119141 486.70996094 C203.70843624 481.96647408 200.72856661 477.20250417 197.75 472.4375 C197.13310303 471.45177002 196.51620605 470.46604004 195.88061523 469.45043945 C192.40118664 463.88040919 188.94870933 458.29483254 185.5234375 452.69140625 C185.15432251 452.08832138 184.78520752 451.48523651 184.40490723 450.86387634 C182.60353565 447.92040956 180.80586071 444.97480696 179.01464844 442.02514648 C178.37301758 440.97528564 177.73138672 439.9254248 177.0703125 438.84375 C176.50070801 437.90724609 175.93110352 436.97074219 175.34423828 436.00585938 C174.67884033 435.01295898 174.67884033 435.01295898 174 434 C172.15479943 434 170.38602575 434.7342994 168.62890625 435.25 Z " fill="#263A58" transform="translate(454,64)"/>
<path d="M0 0 C2.48269674 0.3090171 4.91005893 0.37456583 7.41162109 0.41210938 C45.6104834 1.03241904 77.79931937 17.18628416 105.18115234 43.27148438 C105.96232422 43.98820312 106.74349609 44.70492187 107.54833984 45.44335938 C132.20892794 68.78754597 148.44512586 106.29667712 149.44511414 140.10296631 C149.50792034 143.55545953 149.51169608 147.00605496 149.49365234 150.45898438 C149.49091812 151.54723511 149.49091812 151.54723511 149.48812866 152.6574707 C149.4412239 163.75938457 148.93077547 174.47418379 146.18115234 185.27148438 C146.0095459 185.96516113 145.83793945 186.65883789 145.66113281 187.37353516 C138.81159075 214.34934558 125.49626664 236.48355791 107.18115234 257.27148438 C106.55982422 257.97917969 105.93849609 258.686875 105.29833984 259.41601562 C79.34724097 287.05451779 39.90306258 301.97510676 2.63818359 303.55273438 C-38.68132454 304.60443728 -77.41365396 289.86248396 -107.63916016 261.76757812 C-116.11146381 253.67231975 -123.39814473 245.06956547 -129.81884766 235.27148438 C-130.25036133 234.6145459 -130.681875 233.95760742 -131.12646484 233.28076172 C-152.7125862 199.8391755 -159.89479589 158.31433684 -151.85400391 119.39257812 C-144.11505702 84.81668697 -125.24588854 52.79208982 -96.81884766 31.27148438 C-95.80693359 30.48257813 -94.79501953 29.69367188 -93.75244141 28.88085938 C-77.89295211 16.80960149 -59.97955221 8.56671115 -40.81884766 3.27148438 C-40.10849365 3.07192139 -39.39813965 2.8723584 -38.66625977 2.66674805 C-32.12178431 1.01036132 -25.60514237 0.86935412 -18.88134766 0.70898438 C-16.64295434 0.64924304 -14.40465956 0.58564368 -12.16650391 0.51757812 C-11.18689697 0.4936499 -10.20729004 0.46972168 -9.19799805 0.44506836 C-0.96203608 -0.15583148 -0.96203608 -0.15583148 0 0 Z " fill="#6A85A3" transform="translate(817.81884765625,135.728515625)"/>
<path d="M0 0 C2.50055934 2.50055934 2.4881947 3.83381443 3 7.30078125 C3.2460498 8.96270508 3.2460498 8.96270508 3.49707031 10.65820312 C3.66303711 11.86412109 3.82900391 13.07003906 4 14.3125 C4.26055176 16.18131836 4.26055176 16.18131836 4.52636719 18.08789062 C13.09684357 82.31018456 6.08862669 149.48879168 -23 208 C-23.66854004 209.3614917 -23.66854004 209.3614917 -24.35058594 210.75048828 C-36.83924951 236.0149604 -52.48193704 258.80020536 -71 280 C-71.70125 280.81339844 -72.4025 281.62679688 -73.125 282.46484375 C-83.48334807 294.25531191 -94.62581652 305.34294492 -107 315 C-108.06917452 315.88991374 -109.13541778 316.78335713 -110.19921875 317.6796875 C-126.31800536 331.13619844 -144.34184547 342.4093933 -163 352 C-163.96292969 352.49709473 -164.92585938 352.99418945 -165.91796875 353.50634766 C-258.72454693 400.93281486 -361.54053423 401.74778289 -522.75244141 372.72949219 C-540.24624131 367.05151325 -556.64316264 360.1909833 -568 345 C-572.38054284 335.91442967 -573.08622566 327.0993948 -570.21484375 317.328125 C-567.47315392 310.71254954 -563.42014906 306.29238413 -557 303 C-553.31052681 301.78992049 -549.67530426 301.76111412 -545.8125 301.6875 C-544.56082031 301.65011719 -543.30914063 301.61273437 -542.01953125 301.57421875 C-529.63637969 302.13880422 -517.50534076 306.6304581 -506.04333496 311.03100586 C-479.12852769 321.32484636 -451.76895285 328.57115121 -423 331 C-421.72769531 331.11214844 -420.45539063 331.22429687 -419.14453125 331.33984375 C-340.66512666 337.33932246 -257.0730307 320.85130649 -195.61328125 269.27734375 C-150.05677747 229.57713193 -122.7203193 177.17555971 -116 117 C-115.90211182 116.17290527 -115.80422363 115.34581055 -115.70336914 114.49365234 C-114.6284652 103.94503478 -114.89141476 93.33917065 -114.9375 82.75 C-114.94252529 80.73307403 -114.94708638 78.71614684 -114.95117188 76.69921875 C-114.96209532 71.79944878 -114.97930316 66.89973804 -115 62 C-114.33295044 61.91071228 -113.66590088 61.82142456 -112.9786377 61.72943115 C-90.99808057 58.75079958 -70.39152796 52.90286713 -51 42 C-50.38398926 41.66419922 -49.76797852 41.32839844 -49.13330078 40.98242188 C-30.76110468 30.92043451 -13.18342286 16.29950463 0 0 Z " fill="#8EA4BC" transform="translate(948,406)"/>
<path d="M0 0 C2.14919524 3.22379286 2.45733729 4.89428286 2.97286987 8.67419434 C3.13812164 9.85832413 3.30337341 11.04245392 3.47363281 12.26246643 C3.64717285 13.56481735 3.82071289 14.86716827 3.99951172 16.20898438 C4.18972716 17.5947269 4.3805904 18.98038064 4.572052 20.36595154 C5.09223559 24.14698961 5.60219821 27.92934036 6.10964346 31.7121067 C6.53889962 34.90646412 6.97261868 38.10020983 7.40615475 41.2939887 C8.43695766 48.88981835 9.45899773 56.48679396 10.47607422 64.08447266 C11.39445944 70.94369935 12.32347142 77.80137778 13.26318359 84.65771484 C18.32034674 121.57196706 23.06598275 158.34138522 25.46798134 195.54314518 C27.43768812 242.79431021 27.43768812 242.79431021 47.484375 283.32421875 C51.10948207 287.33239126 51.18195971 291.68412815 51.5 296.875 C52.16986486 302.01847505 52.16986486 302.01847505 54.96484375 306.22265625 C57.5641713 308.02534945 60.20528191 309.51932958 63 311 C65.02944859 312.27808785 67.05052398 313.56957952 69.0625 314.875 C69.98160156 315.44992187 70.90070313 316.02484375 71.84765625 316.6171875 C74 318 74 318 75 319 C75.56098786 325.87210131 74.19886312 331.06362999 70.11328125 336.51953125 C62.61626154 345.24642854 54.11130509 351.87153561 42.4453125 353.31640625 C23.58542454 354.16373455 7.29506335 342.4086676 -6.03515625 330.28515625 C-38.51706929 299.64274748 -56.20745432 253.89177723 -65.33447266 211.11816406 C-65.7566219 209.140288 -66.19221158 207.16519446 -66.64599609 205.19433594 C-70.31782264 188.89387201 -70.39294491 172.56702463 -70.4375 155.9375 C-70.44376404 154.84432465 -70.45002808 153.75114929 -70.45648193 152.62484741 C-70.63243649 103.97614895 -60.82128887 55.14344242 -26.3125 18.9375 C-18.52829896 11.31141554 -9.49297758 5.28325817 0 0 Z " fill="#5D7998" transform="translate(285,337)"/>
<path d="M0 0 C54.1325 0 54.1325 0 63.33984375 8.98046875 C69.17318894 16.0765616 69.76316473 24.26278994 69.39453125 33.140625 C68.67539382 40.17535553 66.33632706 45.48329738 62 51 C62.5775 51.226875 63.155 51.45375 63.75 51.6875 C68.8961399 54.68941494 70.97400506 59.59734683 73 65 C75.44182064 75.05356497 74.98390323 86.21913816 69.67578125 95.25390625 C63.72719375 103.73181442 58.36648136 105.17277781 48 108 C32.16 108 16.32 108 0 108 C0 72.36 0 36.72 0 0 Z M13 14 C13 23.9 13 33.8 13 44 C17.26901566 44.06926888 21.53604369 44.12887559 25.80517578 44.16479492 C27.25413661 44.17978417 28.70305283 44.20018271 30.15185547 44.22631836 C41.42818471 44.52699575 41.42818471 44.52699575 52 41 C55.74149912 36.87475738 57.26012052 32.55617424 57 27 C56.09374345 22.58901677 54.73909865 19.72062118 51.5 16.5625 C47.17005835 13.85628647 43.42979477 13.86623625 38.48828125 13.90234375 C37.39594429 13.90446617 37.39594429 13.90446617 36.28153992 13.90663147 C33.95848461 13.91222341 31.63552612 13.92477438 29.3125 13.9375 C27.73632952 13.94251604 26.16015752 13.94707877 24.58398438 13.95117188 C20.72258905 13.96133879 16.86140275 13.98091564 13 14 Z M13 58 C13 69.88 13 81.76 13 94 C21.6625 94.12375 21.6625 94.12375 30.5 94.25 C32.30662109 94.28641602 34.11324219 94.32283203 35.97460938 94.36035156 C37.43097755 94.37205057 38.88735897 94.38223952 40.34375 94.390625 C41.08012695 94.41108887 41.81650391 94.43155273 42.57519531 94.45263672 C48.05539474 94.45626599 52.50296546 93.23414197 57 90 C60.74125729 85.21086286 61.59616638 80.38584927 61.3203125 74.390625 C60.48640211 68.16680601 57.81608409 63.92006844 53 60 C48.30313126 58.01924763 44.00395062 57.73155976 38.9765625 57.8046875 C38.31422607 57.80670166 37.65188965 57.80871582 36.96948242 57.81079102 C34.52125005 57.82116845 32.07311726 57.84909036 29.625 57.875 C24.13875 57.91625 18.6525 57.9575 13 58 Z " fill="#1F2038" transform="translate(901,879)"/>
<path d="M0 0 C5.56454805 5.39023691 7.68043259 10.03736416 8.3125 17.875 C7.96466427 27.37640744 3.79490779 33.57759188 -3 40 C-7.91397849 44 -7.91397849 44 -11 44 C-7.89864547 48.82432927 -4.47651413 53.28973067 -0.875 57.75 C-0.33746094 58.42160156 0.20007813 59.09320312 0.75390625 59.78515625 C2.76740876 62.29073668 4.72527221 64.72527221 7 67 C8.98 63.37 10.96 59.74 13 56 C18.14808788 57.02961758 20.62920538 58.34324249 25 61 C23.21863274 65.81143804 20.69449703 70.00061386 18.046875 74.37890625 C16.70269914 76.88074259 16.70269914 76.88074259 17.74462891 78.92504883 C19.03634874 81.06007933 20.43552862 82.9091323 22.0390625 84.8203125 C22.61914062 85.52027344 23.19921875 86.22023438 23.796875 86.94140625 C25.02268995 88.4055741 26.24926133 89.86910897 27.4765625 91.33203125 C28.0540625 92.02941406 28.6315625 92.72679687 29.2265625 93.4453125 C29.75846191 94.07969238 30.29036133 94.71407227 30.83837891 95.36767578 C32 97 32 97 32 99 C17.80538117 100.22690583 17.80538117 100.22690583 13.37890625 97.21875 C11.68638041 95.22009163 10.26721718 93.28916652 9 91 C8.01 91.86625 7.02 92.7325 6 93.625 C-3.05605316 101.36114258 -10.31223839 106.44837976 -22.73046875 106.2109375 C-30.97998018 105.4442015 -38.11493118 102.93657927 -44 97 C-51.25452248 88.12977096 -53.0791286 79.33085034 -52 68 C-49.20075379 56.6757767 -41.69323265 49.26367884 -33 42 C-33.56589844 41.10796875 -34.13179688 40.2159375 -34.71484375 39.296875 C-35.45601107 38.11476004 -36.19688091 36.93245852 -36.9375 35.75 C-37.49727539 34.87021484 -37.49727539 34.87021484 -38.06835938 33.97265625 C-42.42909189 26.97976987 -43.26631664 19.83303336 -41.50390625 11.71484375 C-39.15159768 4.81739659 -35.51145733 0.57939691 -29.125 -2.8125 C-19.47889387 -7.21646598 -8.36063737 -7.19403681 0 0 Z M-28 13 C-29.44478143 17.01419386 -29.47804652 20.65990239 -28.046875 24.671875 C-26.04186514 28.75436495 -23.79342364 32.40962903 -21 36 C-14.7425791 34.24010037 -9.97209638 29.46512048 -6 24.5 C-4.62814499 21.07036248 -4.54966474 18.66701566 -5 15 C-6.6281946 11.91806022 -8.03009062 9.73579333 -10.8125 7.625 C-17.95049339 5.58557332 -23.25892583 7.50347994 -28 13 Z M-30.9609375 56.921875 C-35.7561398 61.80893942 -39.10603685 67.36627805 -39.25 74.3125 C-39.14387224 80.27495028 -37.20393696 84.0662258 -33 88.25 C-27.59054029 92.60507349 -21.18505927 93.27939116 -14.4375 92.6875 C-9.05764084 90.04647823 -2.7414176 85.4828352 0 80 C-0.54527344 79.33355469 -1.09054687 78.66710937 -1.65234375 77.98046875 C-2.40644531 77.05878906 -3.16054688 76.13710938 -3.9375 75.1875 C-4.75605469 74.1871875 -5.57460938 73.186875 -6.41796875 72.15625 C-8.08798462 70.11518949 -9.75711646 68.07341625 -11.42578125 66.03125 C-12.94464885 64.17287082 -14.46540313 62.31603162 -15.98828125 60.4609375 C-17.2037494 58.97405414 -18.41179473 57.48099837 -19.60546875 55.9765625 C-20.69457126 54.61598283 -21.83997228 53.30063714 -23 52 C-26.45197563 52 -28.48253453 54.70483089 -30.9609375 56.921875 Z " fill="#1F2037" transform="translate(504,883)"/>
<path d="M0 0 C56.11134454 0 56.11134454 0 66 9 C73.47112845 18.40690263 74.97902731 28.63607755 73.7578125 40.31640625 C72.50855665 47.64622377 68.7486657 54.05347802 63 58.8125 C57.70774852 62.26866423 51.06115871 63.49521857 45 65 C45.35078613 65.47606689 45.70157227 65.95213379 46.06298828 66.44262695 C46.56040527 67.11769287 47.05782227 67.79275879 47.5703125 68.48828125 C48.13065186 69.24866699 48.69099121 70.00905273 49.26831055 70.79248047 C50.51745929 72.48790629 51.76631481 74.18354818 53.01489258 75.87939453 C56.31695776 80.363456 59.62372515 84.84388342 62.94140625 89.31640625 C63.56966309 90.16485107 64.19791992 91.0132959 64.84521484 91.88745117 C66.05076888 93.51525267 67.25805823 95.14177078 68.46728516 96.7668457 C71.16914739 100.41898268 73.76478756 104.03506486 76 108 C70.32549396 108.82945216 64.60855242 109.54522691 59 108 C55.09352248 104.6726646 52.96624051 100.74844688 50.43896484 96.33349609 C47.56788219 91.67760739 44.1044794 87.43811929 40.75 83.125 C39.4100451 81.37868764 38.07145492 79.63132709 36.734375 77.8828125 C36.08919922 77.06329102 35.44402344 76.24376953 34.77929688 75.39941406 C33 73 33 73 31.67382812 70.62402344 C30.28272347 68.03711119 30.28272347 68.03711119 27 65 C20.07 64.505 20.07 64.505 13 64 C13 78.52 13 93.04 13 108 C8.71 108 4.42 108 0 108 C0 72.36 0 36.72 0 0 Z M13 14 C13 26.54 13 39.08 13 52 C17.599375 52.04125 22.19875 52.0825 26.9375 52.125 C28.36956787 52.14320801 29.80163574 52.16141602 31.27709961 52.18017578 C45.05479064 52.26243734 45.05479064 52.26243734 57 46 C60.9256594 40.72066494 61.43799339 35.46040254 61 29 C59.65830107 23.45360679 57.55767338 19.60374174 53 16 C48.30026646 14.02492429 44.0050813 13.73154331 38.9765625 13.8046875 C38.31422607 13.80670166 37.65188965 13.80871582 36.96948242 13.81079102 C34.52125005 13.82116845 32.07311726 13.84909036 29.625 13.875 C24.13875 13.91625 18.6525 13.9575 13 14 Z " fill="#1F2038" transform="translate(1069,879)"/>
<path d="M0 0 C21.78 0 43.56 0 66 0 C66 4.62 66 9.24 66 14 C48.51 14 31.02 14 13 14 C13 24.89 13 35.78 13 47 C29.17 47 45.34 47 62 47 C62 51.62 62 56.24 62 61 C45.83 61 29.66 61 13 61 C13 71.89 13 82.78 13 94 C30.49 94 47.98 94 66 94 C66 98.62 66 103.24 66 108 C44.22 108 22.44 108 0 108 C0 72.36 0 36.72 0 0 Z " fill="#1F2038" transform="translate(578,879)"/>
<path d="M0 0 C21.78 0 43.56 0 66 0 C66 4.62 66 9.24 66 14 C48.51 14 31.02 14 13 14 C13 24.89 13 35.78 13 47 C29.17 47 45.34 47 62 47 C62 51.62 62 56.24 62 61 C45.83 61 29.66 61 13 61 C13 71.89 13 82.78 13 94 C30.49 94 47.98 94 66 94 C66 98.62 66 103.24 66 108 C44.22 108 22.44 108 0 108 C0 72.36 0 36.72 0 0 Z " fill="#1F2038" transform="translate(262,879)"/>
<path d="M0 0 C3.3170991 3.7361011 6.02867386 7.02195355 7 12 C5.40233897 12.86627399 3.79660056 13.71766465 2.1875 14.5625 C1.29417969 15.03816406 0.40085937 15.51382813 -0.51953125 16.00390625 C-3 17 -3 17 -6 16 C-6.515625 15.113125 -7.03125 14.22625 -7.5625 13.3125 C-10.63898276 8.35660949 -16.49039904 5.17933959 -21.9296875 3.3515625 C-30.68735069 1.86441215 -39.28737048 2.38965721 -47 7 C-50.69685696 9.80892826 -52.26884714 13.02482966 -53 17.5625 C-53.14753367 20.40371284 -52.99306296 22.02034864 -52.0625 24.75 C-45.42737484 31.98831836 -36.92268105 33.52919337 -27.625 35.5 C-5.46055732 40.22690665 -5.46055732 40.22690665 1.74609375 48.9609375 C5.49677266 55.06017236 6.48212862 59.88486563 6.375 66.9375 C6.38660156 67.69740234 6.39820313 68.45730469 6.41015625 69.24023438 C6.367632 77.53955006 3.88502762 84.02828264 -1.7890625 90.109375 C-10.27592389 97.3666911 -21.47342193 100.56281018 -32.51953125 100.25 C-44.17711398 99.07506253 -54.61573779 95.38426221 -63 87 C-65.17082913 83.75623233 -67.12588103 80.42259316 -69 77 C-66.6975881 74.39954125 -64.50103323 73.15260817 -61.3125 71.8125 C-60.50425781 71.46832031 -59.69601562 71.12414062 -58.86328125 70.76953125 C-58.24839844 70.51558594 -57.63351562 70.26164063 -57 70 C-56.6596875 70.51949219 -56.319375 71.03898438 -55.96875 71.57421875 C-50.95811017 78.78367659 -45.45872234 82.60125785 -37 85 C-27.94166008 85.98860055 -19.4243245 85.2730393 -12.0859375 79.4921875 C-8.4772487 75.81508754 -7.06827781 72.34320652 -6.83203125 67.20703125 C-7.19382442 62.4532373 -8.77696076 59.1218222 -12.265625 55.921875 C-15.09076501 53.93620517 -17.319051 53.00892603 -20.625 52.0625 C-21.75550781 51.73378906 -22.88601563 51.40507813 -24.05078125 51.06640625 C-26.95618303 50.26815293 -29.87233764 49.51777729 -32.79296875 48.77734375 C-33.62296387 48.5652124 -34.45295898 48.35308105 -35.30810547 48.13452148 C-36.93621929 47.72201731 -38.56668873 47.31866458 -40.19970703 46.92602539 C-49.48129469 44.59634884 -57.64980232 40.83917443 -63.25 32.75 C-67.45510317 24.53414716 -67.65895588 16.82396863 -65 8 C-60.91851274 -0.72317865 -54.34524827 -5.88695433 -45.5 -9.3125 C-29.44550095 -14.59793179 -12.40859418 -11.92670703 0 0 Z " fill="#1F2038" transform="translate(721,889)"/>
<path d="M0 0 C23.43 0 46.86 0 71 0 C75 8 75 8 74.46337891 10.66552734 C73.98046387 11.43590332 73.49754883 12.2062793 73 13 C72.48228027 13.85674316 71.96456055 14.71348633 71.43115234 15.59619141 C70.517771 16.9601001 70.517771 16.9601001 69.5859375 18.3515625 C68.90660156 19.36863281 68.22726562 20.38570312 67.52734375 21.43359375 C66.81707031 22.48675781 66.10679687 23.53992188 65.375 24.625 C64.68792969 25.65496094 64.00085938 26.68492187 63.29296875 27.74609375 C59.27984912 33.73189132 55.14180968 39.60329414 50.87988281 45.4140625 C48.06708711 49.28330043 45.37355757 53.22970238 42.6875 57.1875 C41.56395131 58.83603921 40.44025077 60.48447494 39.31640625 62.1328125 C38.76227051 62.9465332 38.20813477 63.76025391 37.63720703 64.59863281 C35.14158954 68.25907027 32.63452974 71.91159175 30.125 75.5625 C29.70951904 76.16795654 29.29403809 76.77341309 28.8659668 77.3972168 C25.27558571 82.62107556 21.63548884 87.80644451 18 93 C36.15 93.33 54.3 93.66 73 94 C73 98.62 73 103.24 73 108 C49.24 108 25.48 108 1 108 C-2.72727273 100.54545455 -2.72727273 100.54545455 -1 95 C1.06426107 91.73660584 3.40470843 88.71271348 5.75830078 85.65429688 C8.04308256 82.61031706 10.16907411 79.45679905 12.3125 76.3125 C13.2629943 74.924461 14.2135154 73.53644034 15.1640625 72.1484375 C15.8741748 71.10961426 15.8741748 71.10961426 16.59863281 70.04980469 C18.79099182 66.84300221 20.98826633 63.63959079 23.1875 60.4375 C23.62739258 59.7966748 24.06728516 59.15584961 24.52050781 58.49560547 C27.29832961 54.45540285 30.0931284 50.42741947 32.8984375 46.40625 C33.58655518 45.41955322 34.27467285 44.43285645 34.98364258 43.41625977 C36.31799142 41.5042938 37.65365238 39.5932425 38.9909668 37.68334961 C44.44979875 29.86210241 49.70501621 21.94247569 55 14 C36.85 14 18.7 14 0 14 C0 9.38 0 4.76 0 0 Z " fill="#1E2037" transform="translate(340,879)"/>
<path d="M0 0 C1.39456452 0.00667256 2.78911118 0.01863093 4.18359375 0.03515625 C5.2499707 0.04192383 5.2499707 0.04192383 6.33789062 0.04882812 C8.09899388 0.06064761 9.86005411 0.07858362 11.62109375 0.09765625 C15.7637469 9.41250454 19.01094435 18.93588724 22.18267822 28.61349487 C23.70009017 33.24180748 25.23368701 37.86476056 26.765625 42.48828125 C27.08070007 43.44032944 27.39577515 44.39237762 27.72039795 45.37327576 C31.16937726 55.78089969 34.70055068 66.16010393 38.24609375 76.53515625 C38.53950653 77.39547455 38.83291931 78.25579285 39.13522339 79.1421814 C41.99037997 87.5123666 44.84370878 95.8747615 47.97021484 104.14868164 C48.62109375 106.09765625 48.62109375 106.09765625 48.62109375 108.09765625 C44.00109375 108.09765625 39.38109375 108.09765625 34.62109375 108.09765625 C33.05060827 103.57833368 31.48413138 99.05764966 29.92138672 94.53564453 C29.3889644 92.99684984 28.85544009 91.45843598 28.32080078 89.92041016 C27.55342631 87.71225096 26.78999868 85.50276171 26.02734375 83.29296875 C25.78673218 82.60333038 25.54612061 81.91369202 25.29821777 81.20315552 C23.62109375 76.32539966 23.62109375 76.32539966 23.62109375 74.09765625 C10.75109375 74.09765625 -2.11890625 74.09765625 -15.37890625 74.09765625 C-16.03890625 77.06765625 -16.69890625 80.03765625 -17.37890625 83.09765625 C-17.98057288 85.13956335 -18.61401049 87.1725719 -19.2890625 89.19140625 C-19.63904297 90.24070312 -19.98902344 91.29 -20.34960938 92.37109375 C-20.70990234 93.43585938 -21.07019531 94.500625 -21.44140625 95.59765625 C-21.80556641 96.69335938 -22.16972656 97.7890625 -22.54492188 98.91796875 C-25.24522569 106.96397569 -25.24522569 106.96397569 -26.37890625 108.09765625 C-28.56530078 108.17024571 -30.75391014 108.18139408 -32.94140625 108.16015625 C-34.13894531 108.15113281 -35.33648438 108.14210938 -36.5703125 108.1328125 C-37.96056641 108.11541016 -37.96056641 108.11541016 -39.37890625 108.09765625 C-38.7939635 102.98775466 -37.63482566 98.37477925 -35.921875 93.51953125 C-35.66664063 92.77890442 -35.41140625 92.03827759 -35.1484375 91.27520752 C-34.2933773 88.79737518 -33.42980159 86.32259527 -32.56640625 83.84765625 C-31.30332689 80.19753288 -30.04453746 76.54593194 -28.78515625 72.89453125 C-28.44485886 71.90996948 -28.10456146 70.92540771 -27.75395203 69.91101074 C-24.81143886 61.38644523 -21.91828071 52.84555427 -19.03515625 44.30078125 C-18.57777121 42.94609661 -18.12035853 41.5914213 -17.66291809 40.23675537 C-15.84173053 34.84263839 -14.02078288 29.4484442 -12.2046814 24.0526123 C-11.33370302 21.46509047 -10.46121381 18.87808847 -9.58691406 16.29168701 C-8.78351492 13.9149246 -7.9823986 11.53738901 -7.18383789 9.15899658 C-6.82821777 8.10879333 -6.47259766 7.05859009 -6.10620117 5.9765625 C-5.7953508 5.05431885 -5.48450043 4.1320752 -5.16423035 3.18188477 C-3.89538387 -0.18559882 -3.87310763 0.11193953 0 0 Z M3.62109375 16.09765625 C1.9471361 21.23833359 0.27482722 26.37954332 -1.39599609 31.52124023 C-1.96390907 33.26813021 -2.53226211 35.01487719 -3.10107422 36.76147461 C-3.92142295 39.28070667 -4.74015626 41.80045897 -5.55859375 44.3203125 C-5.81075653 45.09351334 -6.06291931 45.86671417 -6.32272339 46.66334534 C-6.56282135 47.40358444 -6.80291931 48.14382355 -7.05029297 48.90649414 C-7.3633992 49.86912926 -7.3633992 49.86912926 -7.68283081 50.85121155 C-8.63305318 53.9178648 -9.49691516 57.01068744 -10.37890625 60.09765625 C-0.80890625 60.09765625 8.76109375 60.09765625 18.62109375 60.09765625 C16.8427051 53.57689785 15.08193272 47.18581754 12.921875 40.8046875 C12.68196335 40.08778244 12.4420517 39.37087738 12.19487 38.63224792 C11.44397819 36.39057649 10.6888812 34.15034996 9.93359375 31.91015625 C9.41703562 30.37053732 8.90075756 28.8308244 8.38476562 27.29101562 C7.13342999 23.55880585 5.87832672 19.82788337 4.62109375 16.09765625 C4.29109375 16.09765625 3.96109375 16.09765625 3.62109375 16.09765625 Z " fill="#1F2038" transform="translate(1014.37890625,878.90234375)"/>
<path d="M0 0 C7.91478584 7.59223971 10.58265893 16.33534683 10.8996582 27.17114258 C10.91939429 29.16219336 10.92757875 31.15338346 10.92578125 33.14453125 C10.93006638 34.21313889 10.9343515 35.28174652 10.93876648 36.38273621 C10.94448149 38.63251033 10.94503105 40.88230292 10.94067383 43.13208008 C10.93751882 46.54215616 10.96099257 49.95135929 10.98632812 53.36132812 C10.98860216 55.55989475 10.98930413 57.75846368 10.98828125 59.95703125 C10.997491 60.9605513 11.00670074 61.96407135 11.01618958 62.9980011 C10.94672377 73.82787239 9.26901012 83.70936671 1.625 91.75 C1.0990625 92.30429687 0.573125 92.85859375 0.03125 93.4296875 C-7.26034722 100.34294713 -17.12718214 103.15053189 -27.04296875 102.9609375 C-37.6863914 101.99821585 -46.26917693 98.27681601 -53.6875 90.5625 C-60.1623426 82.14043172 -60.97698138 72.66025816 -60.90625 62.375 C-60.9100769 61.12928223 -60.91390381 59.88356445 -60.91784668 58.60009766 C-60.9205536 55.98143703 -60.91327861 53.3627488 -60.89648438 50.74414062 C-60.8750597 46.76109906 -60.89633044 42.7798612 -60.921875 38.796875 C-60.91923151 36.2395794 -60.9141061 33.6822849 -60.90625 31.125 C-60.91434692 29.94760254 -60.92244385 28.77020508 -60.93078613 27.55712891 C-60.81437914 17.17198853 -58.6980065 8.14565916 -51.3671875 0.46875 C-36.63899196 -12.23792851 -14.73570804 -12.49519103 0 0 Z M-44.83203125 11.859375 C-49.92643649 18.10163357 -49.8177079 24.63468009 -49.7734375 32.34375 C-49.77630768 33.44924194 -49.77917786 34.55473389 -49.78213501 35.69372559 C-49.78417018 38.02352411 -49.77867874 40.35333994 -49.76611328 42.68310547 C-49.75005264 46.23834638 -49.76598144 49.79245048 -49.78515625 53.34765625 C-49.78317372 55.61719 -49.77932985 57.88672304 -49.7734375 60.15625 C-49.77951019 61.21372437 -49.78558289 62.27119873 -49.7918396 63.36071777 C-49.72261451 70.66599229 -48.94046814 75.68569083 -44.125 81.4375 C-36.71752832 87.66651028 -29.92655645 89.50850595 -20.375 88.75 C-13.9467535 87.51861512 -8.62513243 84.80391396 -4.375 79.75 C-0.50110736 73.95487418 -0.90743014 68.13452255 -0.90625 61.4140625 C-0.89863647 60.2207431 -0.89102295 59.02742371 -0.88317871 57.79794312 C-0.87239131 55.27807707 -0.86951905 52.75816636 -0.87402344 50.23828125 C-0.87499493 46.39506981 -0.83336984 42.55386053 -0.7890625 38.7109375 C-0.78385456 36.25781665 -0.78116732 33.80468888 -0.78125 31.3515625 C-0.76485474 30.20861725 -0.74845947 29.065672 -0.73156738 27.88809204 C-0.79148467 20.926468 -1.69400509 16.07168208 -6.375 10.75 C-17.92909074 1.20531634 -33.77792991 2.72201807 -44.83203125 11.859375 Z " fill="#1F2038" transform="translate(161.375,886.25)"/>
<path d="M0 0 C9.21974101 9.87829394 10.93651058 20.00485821 10.92578125 33.0546875 C10.93006638 34.21823761 10.9343515 35.38178772 10.93876648 36.58059692 C10.94448956 39.03305411 10.94502502 41.48552827 10.94067383 43.93798828 C10.937516 47.66859204 10.96099237 51.39840045 10.98632812 55.12890625 C10.98860169 57.52083234 10.98930435 59.91276055 10.98828125 62.3046875 C10.997491 63.40916229 11.00670074 64.51363708 11.01618958 65.65158081 C10.95270413 76.39976336 8.67623103 85.50382597 1.625 93.8125 C-6.32758113 101.35345685 -15.9881223 104.21986244 -26.82421875 104.01953125 C-37.27750647 103.17110208 -46.26120372 99.73715193 -53.22265625 91.671875 C-59.62374095 82.67575596 -60.83645255 73.92645087 -60.80859375 63.0703125 C-60.8138356 61.86615692 -60.81907745 60.66200134 -60.82447815 59.4213562 C-60.83087557 56.88491585 -60.82959108 54.34844574 -60.82104492 51.81201172 C-60.81254116 47.95616168 -60.8413218 44.1017976 -60.87304688 40.24609375 C-60.8746594 37.77083377 -60.87408037 35.2955712 -60.87109375 32.8203125 C-60.88232773 31.68038849 -60.89356171 30.54046448 -60.90513611 29.36599731 C-60.81986254 19.44615888 -58.55054042 10.43366291 -52.2109375 2.59765625 C-38.1241071 -11.09953842 -15.58119239 -11.40186214 0 0 Z M-45.375 13.8125 C-48.25262224 18.74556669 -49.48895359 22.88202536 -49.53613281 28.54589844 C-49.54574036 29.48077087 -49.5553479 30.41564331 -49.56524658 31.37884521 C-49.56949646 32.38304504 -49.57374634 33.38724487 -49.578125 34.421875 C-49.58382507 35.46265198 -49.58952515 36.50342896 -49.59539795 37.57574463 C-49.60483953 39.77802517 -49.61137859 41.98031978 -49.61523438 44.18261719 C-49.62492361 47.53606112 -49.65594881 50.88888777 -49.6875 54.2421875 C-49.69403215 56.38541304 -49.69928179 58.52864295 -49.703125 60.671875 C-49.7154718 61.66797791 -49.7278186 62.66408081 -49.74053955 63.69036865 C-49.7188245 70.54605936 -49.04083142 76.47282205 -44.61328125 82.01953125 C-37.86629813 87.64429811 -31.94211314 90.49536974 -23.0234375 90.15234375 C-14.88850277 89.10848044 -9.01309041 86.38823068 -3.71484375 80.10546875 C-0.01715576 73.77735548 -0.06749681 67.25969423 -0.07421875 60.12890625 C-0.06779106 58.60740211 -0.06779106 58.60740211 -0.06123352 57.05516052 C-0.055511 54.91788476 -0.05497457 52.78058954 -0.05932617 50.64331055 C-0.06248658 47.38881963 -0.03899874 44.13523817 -0.01367188 40.88085938 C-0.01139859 38.79687614 -0.01069552 36.71289048 -0.01171875 34.62890625 C-0.002509 33.66408829 0.00670074 32.69927032 0.01618958 31.70521545 C-0.03228472 24.5628009 -1.27397447 19.23639346 -5.0625 13.0625 C-11.60811413 6.69379436 -19.45206931 5.45210608 -28.265625 5.52734375 C-34.81457007 6.12793796 -40.73113641 9.16863641 -45.375 13.8125 Z " fill="#1F2038" transform="translate(874.375,885.1875)"/>
<path d="M0 0 C53.94162541 0 53.94162541 0 64.83203125 10.4921875 C72.05120079 18.84301065 73.37831543 27.6339392 73.27734375 38.359375 C72.61926125 46.99786636 69.11373967 54.83227587 63 61 C54.1149129 68.1623054 45.28952571 70.14795345 33.97265625 70.09765625 C32.23254272 70.09390991 32.23254272 70.09390991 30.45727539 70.09008789 C29.00699951 70.08098389 27.55672363 70.07187988 26.0625 70.0625 C19.1015625 70.0315625 19.1015625 70.0315625 12 70 C12 82.54 12 95.08 12 108 C8.04 108 4.08 108 0 108 C0 72.36 0 36.72 0 0 Z M12 14 C12 27.86 12 41.72 12 56 C16.95 56.061875 21.9 56.12375 27 56.1875 C29.31837891 56.22846802 29.31837891 56.22846802 31.68359375 56.27026367 C43.61742105 56.34979276 43.61742105 56.34979276 53.8125 50.5625 C59.13784503 44.32423868 60.37877456 40.30719179 60.26953125 32.07421875 C59.79022033 26.60729565 58.10360601 22.9343017 54.05859375 19.21484375 C48.52796404 14.90645265 44.47135269 13.85110147 37.48828125 13.90234375 C36.84258179 13.90335083 36.19688232 13.90435791 35.53161621 13.90539551 C33.12522601 13.91061789 30.71886118 13.92457917 28.3125 13.9375 C22.929375 13.958125 17.54625 13.97875 12 14 Z " fill="#1F2038" transform="translate(181,879)"/>
<path d="M0 0 C3.5088357 3.67834467 5.95801562 6.85606118 7.6171875 11.6953125 C6.20967529 12.56448137 4.7907354 13.41516399 3.3671875 14.2578125 C2.57828125 14.73347656 1.789375 15.20914063 0.9765625 15.69921875 C-1.3828125 16.6953125 -1.3828125 16.6953125 -3.5078125 16.5546875 C-5.78624236 15.51040715 -6.66404536 14.40020736 -8.1328125 12.3828125 C-12.10931664 7.4676919 -17.21582269 4.91729011 -23.3828125 3.6953125 C-32.95051362 2.83955038 -40.23130987 4.40711933 -48.3203125 9.5703125 C-54.15427331 15.58106 -53.83698357 21.93915401 -53.81640625 29.84765625 C-53.82426903 31.60789879 -53.82426903 31.60789879 -53.83229065 33.40370178 C-53.83870238 35.88069875 -53.8373849 38.35772621 -53.82885742 40.8347168 C-53.8203497 44.61627638 -53.84912003 48.39632396 -53.88085938 52.17773438 C-53.88247162 54.58854122 -53.88189341 56.99935072 -53.87890625 59.41015625 C-53.89014023 60.53638901 -53.90137421 61.66262177 -53.91294861 62.82298279 C-53.8438993 70.6342279 -52.73035169 75.15085924 -47.2578125 80.9453125 C-40.32201607 85.16710163 -32.42793731 86.79071527 -24.3828125 85.6953125 C-15.83744265 83.52691033 -9.36708995 80.17172868 -4.3828125 72.6953125 C0.37200396 73.27165389 3.58766962 75.24599771 7.6171875 77.6953125 C2.75504311 88.78100171 -4.14896888 94.20464449 -15.3828125 98.6953125 C-28.08941914 102.51643594 -40.71179678 100.92275746 -52.3828125 94.6953125 C-60.35272252 90.28573114 -64.85837133 83.3477683 -67.3828125 74.6953125 C-67.66369629 71.77670288 -67.66369629 71.77670288 -67.70507812 68.69677734 C-67.72429321 67.53471771 -67.7435083 66.37265808 -67.76330566 65.17538452 C-67.77180542 63.93157013 -67.78030518 62.68775574 -67.7890625 61.40625 C-67.80046265 60.11143707 -67.81186279 58.81662415 -67.8236084 57.48257446 C-67.84455648 54.7440638 -67.85628698 52.00566921 -67.86328125 49.26708984 C-67.87420469 45.79040079 -67.92218287 42.31529668 -67.97922516 38.83910179 C-68.02588723 35.48652185 -68.02940427 32.13413706 -68.0390625 28.78125 C-68.0637561 27.54958099 -68.08844971 26.31791199 -68.1138916 25.04891968 C-68.05956054 14.35891795 -64.89891994 5.9271768 -57.3203125 -1.7421875 C-40.84345054 -15.1018053 -15.37960714 -14.74144917 0 0 Z " fill="#1F2037" transform="translate(802.3828125,888.3046875)"/>
<path d="M0 0 C34 0 34 0 44 4 C50.04798285 10.79071759 51.29039104 15.20750024 51.23046875 24.171875 C50.89854899 28.2449242 49.66215257 31.27677825 48 35 C47.67 35.99 47.34 36.98 47 38 C47.78375 38.721875 48.5675 39.44375 49.375 40.1875 C54.84285604 46.04591719 54.5018639 52.51745129 54.3125 60.1015625 C53.78064086 66.73650527 51.82695233 70.08807314 47.3125 74.8125 C32.92623864 84.31286128 17.27875419 80 0 80 C0 53.6 0 27.2 0 0 Z M9 10 C9 17.26 9 24.52 9 32 C13.06290008 32.08095816 17.12418567 32.14048645 21.1875 32.1875 C22.33798828 32.21263672 23.48847656 32.23777344 24.67382812 32.26367188 C25.78564453 32.27333984 26.89746094 32.28300781 28.04296875 32.29296875 C29.57473755 32.31653442 29.57473755 32.31653442 31.13745117 32.34057617 C34.48707631 31.94204934 36.30316765 30.99829227 39 29 C41.69387468 24.95918798 41.65867214 21.74410694 41 17 C39.09868444 13.42552675 37.81096258 12.30624508 34.03125 10.87890625 C29.09605569 9.56736146 24.13066523 9.7856339 19.0625 9.875 C14.0815625 9.936875 14.0815625 9.936875 9 10 Z M9 43 C9 51.91 9 60.82 9 70 C14.1975 70.061875 14.1975 70.061875 19.5 70.125 C20.57572266 70.14320801 21.65144531 70.16141602 22.75976562 70.18017578 C29.74629885 70.22013566 36.09165479 70.1039093 41.9375 65.875 C44.49195762 62.31424089 45.13869706 59.29145031 45 55 C44.28621784 50.71730703 43.68418873 48.66664543 40.5625 45.625 C36.57531292 43.0965399 33.64751343 42.87976823 29.01953125 42.90234375 C27.97128174 42.90484131 26.92303223 42.90733887 25.84301758 42.90991211 C24.51294678 42.91901611 23.18287598 42.92812012 21.8125 42.9375 C17.584375 42.958125 13.35625 42.97875 9 43 Z " fill="#4F4F4E" transform="translate(145,1042)"/>
<path d="M0 0 C39.4 0 39.4 0 48 7 C54.48597645 13.633385 55.31070558 20.29166937 55.30078125 29.15234375 C55.30506638 30.01130753 55.3093515 30.8702713 55.31376648 31.75526428 C55.3194821 33.56298953 55.32003058 35.37073776 55.31567383 37.1784668 C55.3125132 39.9260219 55.33600966 42.67249948 55.36132812 45.41992188 C55.36360153 47.18489449 55.36430442 48.94986997 55.36328125 50.71484375 C55.372491 51.52654526 55.38170074 52.33824677 55.39118958 53.17454529 C55.3282813 61.02831542 53.18293101 67.59071376 47.80859375 73.4609375 C35.19052923 84.19855612 13.78190499 80 0 80 C0 53.6 0 27.2 0 0 Z M10 10 C10 29.8 10 49.6 10 70 C27.9951954 71.10664497 27.9951954 71.10664497 42.72265625 63.53515625 C45.81802281 59.8150368 45.17885431 55.13924197 45.203125 50.5703125 C45.21167511 49.32929276 45.21167511 49.32929276 45.22039795 48.0632019 C45.22984023 46.31314368 45.23637887 44.56306773 45.24023438 42.81298828 C45.24993847 40.14193569 45.28096785 37.47165325 45.3125 34.80078125 C45.31903058 33.09896289 45.32428084 31.39713904 45.328125 29.6953125 C45.3404718 28.89932648 45.3528186 28.10334045 45.36553955 27.28323364 C45.34197348 21.38815618 44.06116386 18.12178633 39.875 13.8125 C30.84082049 8.11703901 20.38985685 10 10 10 Z " fill="#4F4F4D" transform="translate(394,1042)"/>
<path d="M0 0 C39.341168 0 39.341168 0 47.47842407 6.44433594 C53.48313274 12.58356915 54.75412357 19.33615591 54.6640625 27.625 C54.66884613 28.61193848 54.67362976 29.59887695 54.67855835 30.61572266 C54.68194106 32.68979499 54.6728536 34.76392183 54.65185547 36.83789062 C54.62506703 39.99210781 54.65165963 43.142767 54.68359375 46.296875 C54.68028936 48.32292443 54.67388254 50.34897167 54.6640625 52.375 C54.67418365 53.30650879 54.68430481 54.23801758 54.69473267 55.19775391 C54.56704927 62.41786246 52.57922621 68.25342132 47.51382446 73.55566406 C34.75955607 83.8234902 13.99919973 80 0 80 C0 53.6 0 27.2 0 0 Z M10 10 C10 29.8 10 49.6 10 70 C27.39578337 70.90158785 27.39578337 70.90158785 42 64 C44.03172266 60.95241601 44.2544052 60.31557279 44.29052734 56.88330078 C44.30328705 56.05879425 44.31604675 55.23428772 44.32919312 54.38479614 C44.33141876 53.49726654 44.33364441 52.60973694 44.3359375 51.6953125 C44.3425943 50.77918182 44.3492511 49.86305115 44.35610962 48.91915894 C44.36623545 46.98079435 44.37092666 45.04239491 44.37060547 43.10400391 C44.37497349 40.14296767 44.41127909 37.18342821 44.44921875 34.22265625 C44.455088 32.33854676 44.45905667 30.45443019 44.4609375 28.5703125 C44.47530853 27.68683136 44.48967957 26.80335022 44.50448608 25.89309692 C44.47423661 21.80882365 44.34512643 19.56864573 42.18603516 16.01123047 C33.43504556 7.96000729 20.94852375 10 10 10 Z " fill="#4F4F4D" transform="translate(925,1042)"/>
<path d="M0 0 C4.21152107 3.6098752 6.87639285 8.00417856 8.625 13.25 C8.73030744 14.66487562 8.7834025 16.08401831 8.80200195 17.50268555 C8.82125481 18.78498299 8.82125481 18.78498299 8.84089661 20.09318542 C8.84828354 21.01505142 8.85567047 21.93691742 8.86328125 22.88671875 C8.871353 23.8401265 8.87942474 24.79353424 8.88774109 25.77583313 C8.90157449 27.79576809 8.91229998 29.81572635 8.92016602 31.83569336 C8.93733793 34.90849834 8.9812261 37.98021576 9.02539062 41.05273438 C9.03552164 43.01822128 9.04403646 44.98371731 9.05078125 46.94921875 C9.06828934 47.86096359 9.08579742 48.77270844 9.10383606 49.71208191 C9.08000056 56.80533899 7.38115677 62.03921944 2.73046875 67.45703125 C-6.50304837 75.18610566 -15.42075653 77.0708282 -27.375 76.25 C-34.64524143 74.92529317 -42.25292888 72.21860284 -46.9453125 66.25390625 C-49.7245743 61.9261986 -51.47790504 58.23958057 -51.56787109 53.02905273 C-51.58393402 52.18064316 -51.59999695 51.33223358 -51.61654663 50.45811462 C-51.66131234 46.56347652 -51.70210094 42.66900591 -51.72509766 38.77416992 C-51.74159905 36.72880631 -51.76881145 34.68349897 -51.80712891 32.63842773 C-51.86233212 29.67401515 -51.88384206 26.71095347 -51.8984375 23.74609375 C-51.92110687 22.84467148 -51.94377625 21.94324921 -51.96713257 21.01451111 C-51.9425916 13.51906638 -49.8446646 6.78650257 -44.4937439 1.33250427 C-31.52434609 -9.58160324 -14.02799695 -7.2737762 0 0 Z M-40.375 12.25 C-42.06737685 15.6347537 -41.58156831 19.4780761 -41.61328125 23.203125 C-41.621353 24.09610291 -41.62942474 24.98908081 -41.63774109 25.90911865 C-41.6515857 27.80218563 -41.66230616 29.69527762 -41.67016602 31.58837891 C-41.6873498 34.4747701 -41.73122842 37.36000722 -41.77539062 40.24609375 C-41.7855202 42.08592908 -41.79403547 43.92577415 -41.80078125 45.765625 C-41.81828934 46.62520813 -41.83579742 47.48479126 -41.85383606 48.37042236 C-41.83422201 53.82738152 -40.9988268 56.91167556 -37.375 61.25 C-31.6114813 65.84319722 -24.1215593 66.68432569 -16.984375 66.03125 C-11.66617145 65.09061536 -7.22423353 63.10989623 -3.375 59.25 C-1.73797046 56.44646103 -1.11768078 54.36263887 -1.06860352 51.12744141 C-1.05261612 50.32625885 -1.03662872 49.52507629 -1.02015686 48.69961548 C-1.01479416 47.842258 -1.00943146 46.98490051 -1.00390625 46.1015625 C-0.99487778 45.21141449 -0.9858493 44.32126648 -0.97654724 43.40414429 C-0.96205633 41.5230444 -0.95316088 39.64189425 -0.94946289 37.76074219 C-0.93756927 34.89170899 -0.88837644 32.02482931 -0.83789062 29.15625 C-0.82842543 27.32553129 -0.82119086 25.49479942 -0.81640625 23.6640625 C-0.79687393 22.81075348 -0.77734161 21.95744446 -0.75721741 21.07827759 C-0.78879398 16.88301474 -1.04266943 14.1117066 -3.71850586 10.77490234 C-9.65564842 5.13186141 -15.88081709 3.9305917 -23.78125 4.03515625 C-30.67326466 4.60603096 -35.44979619 7.56505003 -40.375 12.25 Z " fill="#4E4E4D" transform="translate(768.375,1046.75)"/>
<path d="M0 0 C4.29 0 8.58 0 13 0 C13 31.02 13 62.04 13 94 C29.17 94 45.34 94 62 94 C62 98.62 62 103.24 62 108 C41.54 108 21.08 108 0 108 C0 72.36 0 36.72 0 0 Z " fill="#1F2038" transform="translate(37,879)"/>
<path d="M0 0 C5.24853521 3.67590426 8.69653506 7.51538644 10.75 13.67578125 C10.85103901 15.1626596 10.89829193 16.65354677 10.91113281 18.14379883 C10.92074036 19.04516068 10.9303479 19.94652252 10.94024658 20.87519836 C10.94449646 21.84708603 10.94874634 22.81897369 10.953125 23.8203125 C10.95882507 24.82285568 10.96452515 25.82539886 10.97039795 26.85832214 C10.9798466 28.98081406 10.9863814 31.10332063 10.99023438 33.22583008 C10.99993112 36.46526851 11.03095248 39.70407009 11.0625 42.94335938 C11.06903113 45.00650665 11.07428117 47.06965846 11.078125 49.1328125 C11.0904718 50.09862747 11.1028186 51.06444244 11.11553955 52.05952454 C11.09037132 59.69795462 9.18185829 65.10097932 3.75 70.67578125 C-6.08050027 77.28035036 -16.40375801 79.33596639 -28.1015625 77.140625 C-36.21312556 74.8983047 -42.59076401 70.77690598 -47.25 63.67578125 C-49.44266426 58.4528963 -49.55666201 53.74965455 -49.55078125 48.18359375 C-49.55506638 47.27882294 -49.5593515 46.37405212 -49.56376648 45.44186401 C-49.56949119 43.53400506 -49.57002379 41.6261243 -49.56567383 39.71826172 C-49.56251764 36.81699931 -49.58598317 33.91676129 -49.61132812 31.015625 C-49.61360186 29.15494919 -49.61430427 27.29427067 -49.61328125 25.43359375 C-49.622491 24.57500763 -49.63170074 23.71642151 -49.64118958 22.83181763 C-49.59218206 16.37304764 -48.50905461 10.92975628 -44.7421875 5.50390625 C-33.12354721 -5.83409055 -14.17548706 -8.34286478 0 0 Z M-36.8125 12.30078125 C-40.6510498 18.64273309 -39.59248509 26.27748567 -39.6550293 33.53198242 C-39.67657592 35.41075052 -39.71063934 37.28941913 -39.75756836 39.16772461 C-39.82477716 41.88310355 -39.8520635 44.59640512 -39.87109375 47.3125 C-39.89892441 48.14504807 -39.92675507 48.97759613 -39.95542908 49.83537292 C-39.93593312 55.41358822 -38.66408078 58.25626591 -34.80311584 62.29060364 C-29.44941807 67.06540671 -23.2075713 67.82682757 -16.25 67.67578125 C-9.69636675 66.62268667 -4.83174551 64.48661403 -0.25 59.67578125 C2.00856619 55.3976429 2.05658824 51.25632652 2.05078125 46.5234375 C2.05720894 45.35680824 2.05720894 45.35680824 2.06376648 44.16661072 C2.0694918 42.52685517 2.07002332 40.88707423 2.06567383 39.24731445 C2.06251447 36.74971857 2.08599204 34.25330899 2.11132812 31.75585938 C2.1136015 30.15755357 2.11430443 28.5592446 2.11328125 26.9609375 C2.122491 26.22013443 2.13170074 25.47933136 2.14118958 24.71607971 C2.08469072 18.32896828 0.49558296 14.42136421 -4 9.92578125 C-13.77886357 3.15579878 -28.29639859 3.57697005 -36.8125 12.30078125 Z " fill="#4E4E4D" transform="translate(504.25,1045.32421875)"/>
<path d="M0 0 C5.73415529 4.6915816 9.23827492 8.86040067 10.75 16.25 C11.03045415 19.30330306 11.05421398 22.33752493 11.05078125 25.40234375 C11.05506638 26.26130753 11.0593515 27.1202713 11.06376648 28.00526428 C11.0694821 29.81298953 11.07003058 31.62073776 11.06567383 33.4284668 C11.0625132 36.1760219 11.08600966 38.92249948 11.11132812 41.66992188 C11.11360153 43.43489449 11.11430442 45.19986997 11.11328125 46.96484375 C11.122491 47.77654526 11.13170074 48.58824677 11.14118958 49.42454529 C11.07867927 57.22863035 8.96776623 63.80755914 3.625 69.64453125 C-5.0857048 77.10307224 -15.24527459 77.9426051 -26.25 77.25 C-33.96243498 75.9753959 -40.54012072 72.70185514 -45.59765625 66.6328125 C-48.28804831 62.75633362 -49.36868539 59.47227475 -49.42700195 54.8137207 C-49.43983719 53.91881424 -49.45267242 53.02390778 -49.46589661 52.10188293 C-49.47328354 51.13626938 -49.48067047 50.17065582 -49.48828125 49.17578125 C-49.496353 48.17798141 -49.50442474 47.18018158 -49.51274109 46.15214539 C-49.52657609 44.03805272 -49.53730085 41.92393776 -49.54516602 39.80981445 C-49.5623416 36.5921737 -49.60622923 33.37557049 -49.65039062 30.15820312 C-49.66052123 28.10157004 -49.66903618 26.04492823 -49.67578125 23.98828125 C-49.69328934 23.03278885 -49.71079742 22.07729645 -49.72883606 21.09284973 C-49.70607665 14.00832586 -48.18231201 8.72913011 -43.57421875 3.26171875 C-31.01632131 -6.89848945 -14.13644782 -7.61193344 0 0 Z M-36.75 11.75 C-40.35691644 16.31876083 -40.42131249 20.56931849 -40.453125 26.20703125 C-40.45882507 26.98761398 -40.46452515 27.76819672 -40.47039795 28.57243347 C-40.4798395 30.22413786 -40.48637858 31.87586102 -40.49023438 33.52758789 C-40.49992418 36.04281887 -40.53094801 38.55722691 -40.5625 41.07226562 C-40.56903214 42.67968267 -40.57428178 44.28710553 -40.578125 45.89453125 C-40.5904718 46.64160843 -40.6028186 47.38868561 -40.61553955 48.15840149 C-40.59056 54.07314804 -39.25404858 58.12449393 -35.1875 62.4375 C-28.71243929 66.43275023 -22.17898442 67.9332999 -14.63671875 66.8203125 C-8.60245207 65.37840917 -4.31035534 62.96335672 -0.338974 58.09928894 C1.69766363 54.64068346 1.44186544 51.04343829 1.37890625 47.125 C1.38131821 46.25987793 1.38373016 45.39475586 1.38621521 44.50341797 C1.38523929 42.6812683 1.37190673 40.85908804 1.34692383 39.03710938 C1.31259984 36.25808351 1.3262808 33.4822385 1.34570312 30.703125 C1.33880421 28.92706988 1.32913141 27.15102293 1.31640625 25.375 C1.32136612 24.54983887 1.32632599 23.72467773 1.33143616 22.87451172 C1.2233175 17.54235416 0.25052784 14.50181842 -3.25 10.25 C-12.40967091 2.77062667 -28.69888528 2.66127145 -36.75 11.75 Z " fill="#4F4F4E" transform="translate(1035.25,1045.75)"/>
<path d="M0 0 C5.28241603 3.76211093 8.29616379 7.42057394 10.52734375 13.5234375 C11.09267126 17.02827828 11.13582907 20.47018674 11.12890625 24.015625 C11.1374765 25.00160675 11.14604675 25.9875885 11.15487671 27.00344849 C11.16630918 29.07925358 11.16740384 31.15513874 11.15869141 33.23095703 C11.15237419 36.38324599 11.19933073 39.53176845 11.25 42.68359375 C11.36814 61.1170934 11.36814 61.1170934 6.14941406 67.88720703 C-0.72528372 74.82191873 -9.17914347 77.55538806 -18.78515625 77.8359375 C-28.10207386 77.67530099 -36.29616324 75.62526955 -43.09765625 68.921875 C-48.96570377 62.51780391 -49.78235566 56.47216802 -49.7734375 48.03125 C-49.77772263 47.12647919 -49.78200775 46.22170837 -49.78642273 45.28952026 C-49.79214744 43.38166131 -49.79268004 41.47378055 -49.78833008 39.56591797 C-49.78517389 36.66465556 -49.80863942 33.76441754 -49.83398438 30.86328125 C-49.83625811 29.00260544 -49.83696052 27.14192692 -49.8359375 25.28125 C-49.84514725 24.42266388 -49.85435699 23.56407776 -49.86384583 22.67947388 C-49.81483831 16.22070389 -48.73171086 10.77741253 -44.96484375 5.3515625 C-33.25015324 -6.08016447 -14.20647847 -8.48348951 0 0 Z M-37.03515625 12.1484375 C-39.72038536 16.58490298 -39.65027778 20.19846846 -39.67578125 25.29296875 C-39.68148132 26.16612228 -39.6871814 27.03927582 -39.6930542 27.93888855 C-39.7025097 29.78908067 -39.70904036 31.63928968 -39.71289062 33.48950195 C-39.7225819 36.31426594 -39.7535938 39.13829794 -39.78515625 41.96289062 C-39.79168777 43.76041235 -39.79693766 45.55793927 -39.80078125 47.35546875 C-39.81312805 48.19833939 -39.82547485 49.04121002 -39.8381958 49.90962219 C-39.82039215 54.61991237 -39.52074082 57.69612632 -36.47265625 61.5234375 C-30.50556994 66.49600942 -24.03323511 67.87853924 -16.41015625 67.3984375 C-10.20013244 66.56785889 -5.42300478 64.52379497 -1.03515625 60.0234375 C1.83187247 55.43619154 1.69945647 50.98611672 1.73046875 45.6875 C1.73901886 44.55204239 1.73901886 44.55204239 1.7477417 43.39364624 C1.75716889 41.79499703 1.7637166 40.19632859 1.76757812 38.59765625 C1.77728284 36.16371473 1.80832623 33.73061854 1.83984375 31.296875 C1.84637477 29.73958832 1.85162485 28.18229563 1.85546875 26.625 C1.86781555 25.90293365 1.88016235 25.18086731 1.8928833 24.43692017 C1.86523461 18.1043502 0.22970233 14.22579608 -4.22265625 9.7734375 C-14.00151982 3.00345503 -28.51905484 3.4246263 -37.03515625 12.1484375 Z " fill="#4E4E4D" transform="translate(253.47265625,1045.4765625)"/>
<path d="M0 0 C3.50731259 2.71618945 6.0139932 5.95496625 8.12109375 9.83203125 C7.12109375 12.83203125 7.12109375 12.83203125 5.2734375 13.78125 C4.54253906 14.02488281 3.81164062 14.26851562 3.05859375 14.51953125 C2.32511719 14.77089844 1.59164062 15.02226563 0.8359375 15.28125 C0.27003906 15.46300781 -0.29585938 15.64476562 -0.87890625 15.83203125 C-1.60078125 14.90390625 -2.32265625 13.97578125 -3.06640625 13.01953125 C-6.27360666 9.17813867 -9.83797237 6.55216466 -14.87890625 5.83203125 C-22.36911834 5.33268378 -28.00107272 6.38281122 -33.81640625 11.33203125 C-37.34847454 15.61332615 -37.05297005 19.70810315 -37.08203125 25.0078125 C-37.08773132 25.81059128 -37.0934314 26.61337006 -37.0993042 27.44047546 C-37.10874664 29.13925868 -37.11528518 30.83806015 -37.11914062 32.53686523 C-37.12883129 35.12451501 -37.15985483 37.71136521 -37.19140625 40.29882812 C-37.19793826 41.95181822 -37.20318796 43.60481397 -37.20703125 45.2578125 C-37.21937805 46.02676346 -37.23172485 46.79571442 -37.2444458 47.58796692 C-37.22005579 53.52583076 -35.94902814 57.70276302 -31.69140625 62.08203125 C-26.03736195 65.60010326 -20.59674426 66.34189614 -14.12109375 65.3671875 C-9.05011827 64.15686757 -5.12531506 62.48050742 -1.94140625 58.26953125 C-0.45086142 53.44718034 -0.18611366 48.87023285 0.12109375 43.83203125 C-7.13890625 43.83203125 -14.39890625 43.83203125 -21.87890625 43.83203125 C-21.87890625 40.53203125 -21.87890625 37.23203125 -21.87890625 33.83203125 C-11.31890625 33.83203125 -0.75890625 33.83203125 10.12109375 33.83203125 C10.18296875 37.29703125 10.24484375 40.76203125 10.30859375 44.33203125 C10.34956177 45.94561523 10.34956177 45.94561523 10.39135742 47.59179688 C10.47040796 56.80585991 8.44760321 63.22446082 2.0859375 70.0703125 C-4.76256403 76.21081785 -12.77326207 77.21493228 -21.68359375 77.10546875 C-30.58277355 76.34392525 -38.05968668 72.62350373 -43.87890625 65.83203125 C-49.02456922 57.74598944 -48.06525502 47.38758462 -48.06420898 38.18139648 C-48.06639008 36.03544101 -48.08457357 33.89000514 -48.10351562 31.74414062 C-48.19094991 10.68270263 -48.19094991 10.68270263 -40.4140625 2.2421875 C-29.6105315 -8.15462234 -12.25431053 -7.61754438 0 0 Z " fill="#4D4D4C" transform="translate(317.87890625,1046.16796875)"/>
<path d="M0 0 C3.39434126 2.74813821 6.02152998 5.55719944 7.8671875 9.57421875 C7.8671875 10.56421875 7.8671875 11.55421875 7.8671875 12.57421875 C2.5871875 15.57421875 2.5871875 15.57421875 -0.2578125 15.57421875 C-2.1328125 14.57421875 -2.1328125 14.57421875 -3.8203125 12.26171875 C-7.45921273 8.03272659 -11.96705078 6.04987577 -17.47265625 5.22265625 C-23.84114139 4.98315766 -28.2682554 6.66451402 -33.5703125 10.19921875 C-35.61809785 13.31185249 -35.65519046 15.69590863 -35.76171875 19.35546875 C-34.76207753 22.88215331 -33.29308779 23.69732355 -30.1328125 25.57421875 C-25.21193133 27.11848988 -20.16172315 28.11688971 -15.12304688 29.19726562 C-7.39750847 30.96379061 -1.41575326 33.29127799 4.2421875 38.94921875 C8.17406896 45.30071957 8.91370613 52.44627746 7.4375 59.6796875 C5.52416493 65.78582472 1.56519987 70.42622433 -3.96875 73.640625 C-12.68618778 77.58060234 -22.83167197 77.96153335 -31.8828125 75.01171875 C-38.81842253 72.18535744 -44.95688434 67.5215616 -48.1328125 60.57421875 C-48.1328125 59.91421875 -48.1328125 59.25421875 -48.1328125 58.57421875 C-45.1628125 57.25421875 -42.1928125 55.93421875 -39.1328125 54.57421875 C-38.3490625 55.64671875 -37.5653125 56.71921875 -36.7578125 57.82421875 C-32.16806008 63.17350467 -26.38506064 65.18170604 -19.5078125 66.01171875 C-13.30418391 65.20754467 -8.17273546 63.58372323 -4.1328125 58.57421875 C-2.23204501 54.77268377 -2.72168537 50.83696638 -4.0078125 46.88671875 C-9.67262934 40.72206513 -19.84051034 39.44105263 -27.71118164 37.5 C-35.44445182 35.49933629 -40.39375266 31.9380991 -45.1328125 25.57421875 C-47.09493041 19.68786502 -47.1497985 12.97186298 -44.5703125 7.26171875 C-40.90804569 1.01281594 -35.66345405 -2.97851571 -28.7109375 -4.953125 C-18.5769296 -6.81102645 -8.68730862 -5.8074499 0 0 Z " fill="#4E4E4D" transform="translate(567.1328125,1046.42578125)"/>
<path d="M0 0 C4.03985149 2.89973027 7.23925031 5.85887546 10 10 C10 11.32 10 12.64 10 14 C4.375 17 4.375 17 1 17 C0.7525 16.21625 0.505 15.4325 0.25 14.625 C-1.24143729 11.4929817 -1.8103421 11.17513712 -5 10 C-5.56847656 9.7421875 -6.13695312 9.484375 -6.72265625 9.21875 C-12.52934724 6.72522067 -18.13231112 5.68606388 -24.2421875 7.76171875 C-27.95796961 9.48350057 -31.24131849 11.15288421 -33 15 C-33.47088462 18.76707694 -33.63292144 21.00934036 -31.5625 24.25 C-24.80300121 28.86624308 -15.71166494 30.16986997 -7.84179688 32.01757812 C-1.45875508 33.61204855 3.22894574 35.65454977 7.3125 41.0625 C10.94472225 47.38525726 10.56056386 53.87847037 10 61 C8.458332 66.69095729 5.11579237 71.01135623 0 74 C-9.21614958 78.55579517 -18.28790054 79.42273447 -28.25 76.875 C-35.5332376 74.38090095 -41.52988533 69.94022933 -45 63 C-45.125 60.8125 -45.125 60.8125 -44 59 C-38.96428571 56 -38.96428571 56 -36 56 C-35.46375 56.9075 -34.9275 57.815 -34.375 58.75 C-31.31559853 63.5078192 -26.95615823 65.30499339 -21.57421875 66.5703125 C-15.52840649 67.4541482 -10.45260847 66.83180277 -5 64 C-2.15833693 61.71280777 -1.22346885 60.20040348 -0.55859375 56.62890625 C-0.27735771 52.76865255 -0.27735771 52.76865255 -1 49 C-6.62972803 42.54522562 -14.68728364 41.67665794 -22.703125 39.77148438 C-30.69053899 37.73632194 -36.93639018 35.15069718 -41.9375 28.375 C-44.53005674 22.57987316 -44.84373502 16.95722917 -42.8125 10.875 C-40.30223083 4.79874099 -35.58307445 1.23818318 -30 -2 C-20.13339046 -5.94664382 -9.3043703 -4.90153657 0 0 Z " fill="#4E4E4D" transform="translate(1095,1045)"/>
<path d="M0 0 C3.39434126 2.74813821 6.02152998 5.55719944 7.8671875 9.57421875 C7.8671875 10.56421875 7.8671875 11.55421875 7.8671875 12.57421875 C2.62775088 15.55117137 2.62775088 15.55117137 -0.1953125 15.63671875 C-2.1328125 14.57421875 -2.1328125 14.57421875 -4.3828125 11.69921875 C-7.82622083 7.33196916 -11.9841975 5.96440856 -17.40234375 5.29296875 C-23.41594607 5.04709745 -28.28253233 6.19898528 -33.0078125 10.13671875 C-35.33320577 13.10805459 -35.38859728 15.79902907 -35.65625 19.50390625 C-34.78298072 22.95788176 -33.17987896 23.74894078 -30.1328125 25.57421875 C-25.21280786 27.12061435 -20.16150406 28.11693669 -15.12304688 29.19726562 C-6.549143 31.15777823 0.96022514 33.83631657 5.8671875 41.57421875 C8.79907663 47.73118591 8.98212601 54.80182973 7.0625 61.296875 C3.63413593 69.13482459 -1.68695208 72.6932778 -9.3828125 75.94921875 C-20.16636019 77.7464767 -30.21229407 77.21085133 -39.48828125 70.99609375 C-43.9898498 67.35548093 -46.34025658 64.06392126 -48.1328125 58.57421875 C-46.84367763 57.90266942 -45.55141046 57.23713016 -44.2578125 56.57421875 C-43.53851562 56.20296875 -42.81921875 55.83171875 -42.078125 55.44921875 C-40.1328125 54.57421875 -40.1328125 54.57421875 -38.1328125 54.57421875 C-37.5759375 55.48171875 -37.0190625 56.38921875 -36.4453125 57.32421875 C-33.16172289 61.93899333 -29.93540178 63.96350526 -24.515625 65.14453125 C-18.17152506 65.9704944 -13.8397901 65.47776876 -8.1328125 62.57421875 C-4.3930758 59.40982615 -3.24202962 57.68459283 -2.7578125 52.76171875 C-2.81860687 49.40586932 -3.08369261 48.64329359 -5.1328125 45.76171875 C-10.42724117 41.90119784 -16.55230738 40.39317792 -22.83154297 38.83862305 C-31.10981836 36.76334565 -38.22699813 34.90238171 -43.484375 27.73046875 C-46.33812731 22.83832192 -46.95739798 18.14519868 -46.1328125 12.57421875 C-43.94050079 5.76651395 -40.49522468 0.58165478 -34.0703125 -2.73828125 C-23.19161568 -7.84372907 -9.96125838 -6.65908298 0 0 Z " fill="#4E4E4D" transform="translate(704.1328125,1046.42578125)"/>
<path d="M0 0 C1.65322266 0.01740234 1.65322266 0.01740234 3.33984375 0.03515625 C4.99693359 0.04869141 4.99693359 0.04869141 6.6875 0.0625 C7.54214844 0.07410156 8.39679688 0.08570313 9.27734375 0.09765625 C9.65532356 1.21613449 9.65532356 1.21613449 10.04093933 2.35720825 C12.43691927 9.44643477 14.83406507 16.53526555 17.23246288 23.62367439 C18.46492604 27.26632082 19.69696608 30.90910912 20.92797852 34.55224609 C22.11998204 38.0798829 23.3131761 41.6071151 24.50713539 45.13409042 C24.95836568 46.46768244 25.40919444 47.80141039 25.85957909 49.13528824 C28.70570542 57.594338 28.70570542 57.594338 31.70571899 65.99945068 C31.93826795 66.63395079 32.1708169 67.26845089 32.41041279 67.92217827 C33.05540315 69.6733353 33.7085669 71.42147566 34.36225891 73.16940308 C35.27734375 76.09765625 35.27734375 76.09765625 35.27734375 80.09765625 C31.97734375 80.09765625 28.67734375 80.09765625 25.27734375 80.09765625 C23.93899389 76.30774132 22.60751712 72.51544789 21.27734375 68.72265625 C20.89578125 67.64242188 20.51421875 66.5621875 20.12109375 65.44921875 C19.5796875 63.90234375 19.5796875 63.90234375 19.02734375 62.32421875 C18.6921875 61.37111816 18.35703125 60.41801758 18.01171875 59.43603516 C17.27734375 57.09765625 17.27734375 57.09765625 17.27734375 55.09765625 C8.03734375 55.42765625 -1.20265625 55.75765625 -10.72265625 56.09765625 C-13.36265625 64.01765625 -16.00265625 71.93765625 -18.72265625 80.09765625 C-22.35265625 80.09765625 -25.98265625 80.09765625 -29.72265625 80.09765625 C-27.0924852 69.72834878 -23.58914851 59.69993533 -20.09765625 49.59765625 C-18.83939121 45.94200835 -17.58355285 42.28552935 -16.328125 38.62890625 C-16.01871475 37.72857666 -15.7093045 36.82824707 -15.39051819 35.90063477 C-13.51095919 30.4233531 -11.65637946 24.93861599 -9.8359375 19.44140625 C-9.62360474 18.80037964 -9.41127197 18.15935303 -9.19250488 17.49890137 C-8.2235941 14.56919543 -7.25974786 11.63789493 -6.30029297 8.70507812 C-5.96916504 7.70025391 -5.63803711 6.69542969 -5.296875 5.66015625 C-5.01416748 4.79519531 -4.73145996 3.93023438 -4.44018555 3.0390625 C-3.35179284 0.09421772 -3.2725814 0.11738097 0 0 Z M2.27734375 13.09765625 C-2.67265625 28.44265625 -2.67265625 28.44265625 -7.72265625 44.09765625 C-0.79265625 44.09765625 6.13734375 44.09765625 13.27734375 44.09765625 C10.63426697 33.52534914 6.94779146 23.34689575 3.27734375 13.09765625 C2.94734375 13.09765625 2.61734375 13.09765625 2.27734375 13.09765625 Z " fill="#4E4E4D" transform="translate(355.72265625,1041.90234375)"/>
<path d="M0 0 C3.96 0 7.92 0 12 0 C15.50786314 8.47578924 18.49128304 17.09484977 21.421875 25.78125 C21.93167005 27.28679521 22.44162153 28.79228746 22.95172119 30.29772949 C24.01243456 33.43029806 25.07114204 36.56353528 26.12841797 39.69726562 C27.48518192 43.71806599 28.84722883 47.73705406 30.21076584 51.75556183 C31.26122575 54.85338626 32.30883028 57.95217035 33.35556793 61.05125427 C33.85704223 62.53477119 34.35943414 64.01797825 34.86275482 65.50086975 C35.56214463 67.56275704 36.25766211 69.62590998 36.95214844 71.68945312 C37.54694 73.44956726 37.54694 73.44956726 38.15374756 75.24523926 C39 78 39 78 39 80 C35.7 80 32.4 80 29 80 C28.24402151 78.25257431 27.49566066 76.50185336 26.75 74.75 C26.33234375 73.77546875 25.9146875 72.8009375 25.484375 71.796875 C23.45484468 66.60555009 21.76263574 61.28790723 20 56 C6.14 55.505 6.14 55.505 -8 55 C-8.99 58.63 -9.98 62.26 -11 66 C-11.86279786 68.57381108 -12.75373612 71.13857697 -13.6875 73.6875 C-14.12449219 74.88761719 -14.56148437 76.08773438 -15.01171875 77.32421875 C-15.33785156 78.20722656 -15.66398438 79.09023437 -16 80 C-19.3 80 -22.6 80 -26 80 C-24.58297469 73.02888181 -22.60505988 66.40440762 -20.33203125 59.66796875 C-19.9741301 58.59613846 -19.61622894 57.52430817 -19.2474823 56.41999817 C-18.49058439 54.1560013 -17.73153581 51.89272244 -16.97045898 49.63012695 C-15.82926641 46.23734677 -14.69428196 42.84254416 -13.56054688 39.44726562 C-9.14872762 26.25949929 -4.63585107 13.11066495 0 0 Z M6 13 C4.57191631 17.09206747 3.14785715 21.18550604 1.72753906 25.28027344 C1.24362265 26.67356297 0.7586014 28.06646928 0.27246094 29.45898438 C-0.42542506 31.4586414 -1.1193484 33.45963523 -1.8125 35.4609375 C-2.23144531 36.66540527 -2.65039062 37.86987305 -3.08203125 39.11083984 C-4.10093713 41.81243568 -4.10093713 41.81243568 -4 44 C2.6 44 9.2 44 16 44 C14.36163808 36.5524071 14.36163808 36.5524071 12.2734375 29.30859375 C11.9640625 28.34501953 11.6546875 27.38144531 11.3359375 26.38867188 C11.01882813 25.41478516 10.70171875 24.44089844 10.375 23.4375 C10.05015625 22.42880859 9.7253125 21.42011719 9.390625 20.38085938 C8.59735302 17.91938308 7.80041857 15.4591597 7 13 C6.67 13 6.34 13 6 13 Z " fill="#4E4E4D" transform="translate(883,1042)"/>
<path d="M0 0 C3.96 0 7.92 0 12 0 C21.37560838 26.55071977 30.46287167 53.16730122 39 80 C35.37 80 31.74 80 28 80 C26.66291981 76.20961643 25.33017809 72.41780509 24 68.625 C23.6184375 67.54476563 23.236875 66.46453125 22.84375 65.3515625 C22.30234375 63.8046875 22.30234375 63.8046875 21.75 62.2265625 C21.41484375 61.27346191 21.0796875 60.32036133 20.734375 59.33837891 C20 57 20 57 20 55 C10.76 55 1.52 55 -8 55 C-8.99 58.63 -9.98 62.26 -11 66 C-11.86279786 68.57381108 -12.75373612 71.13857697 -13.6875 73.6875 C-14.12449219 74.88761719 -14.56148437 76.08773438 -15.01171875 77.32421875 C-15.33785156 78.20722656 -15.66398437 79.09023437 -16 80 C-19.3 80 -22.6 80 -26 80 C-25.4122478 74.97563012 -24.33469684 70.53414201 -22.69921875 65.71948242 C-22.46659332 65.02916931 -22.2339679 64.3388562 -21.99429321 63.62762451 C-21.23123847 61.36820008 -20.459514 59.11184597 -19.6875 56.85546875 C-19.15274427 55.27859479 -18.61849089 53.70155039 -18.0847168 52.12434387 C-16.96870218 48.83073133 -15.84876102 45.53849193 -14.72558594 42.24731445 C-13.28446426 38.02442155 -11.84995898 33.79932089 -10.41795349 29.57332897 C-9.05157179 25.54166083 -7.68227295 21.51098574 -6.3125 17.48046875 C-6.05093109 16.71023062 -5.78936218 15.93999249 -5.51986694 15.1464138 C-4.78176621 12.9749102 -4.04163338 10.80411114 -3.30078125 8.63354492 C-2.87966064 7.39779221 -2.45854004 6.16203949 -2.0246582 4.88883972 C-1 2 -1 2 0 0 Z M5 14 C3.71248643 17.78834888 2.43090931 21.57864846 1.15478516 25.37084961 C0.71988772 26.66046159 0.28337578 27.94953029 -0.15478516 29.23803711 C-0.78452574 31.0908453 -1.40797257 32.94578889 -2.03125 34.80078125 C-2.40830078 35.91622314 -2.78535156 37.03166504 -3.17382812 38.1809082 C-4.1406174 40.99020971 -4.1406174 40.99020971 -4 44 C2.6 44 9.2 44 16 44 C14.39218839 36.63777506 14.39218839 36.63777506 12.2734375 29.52734375 C11.9640625 28.60888672 11.6546875 27.69042969 11.3359375 26.74414062 C11.01882812 25.81794922 10.70171875 24.89175781 10.375 23.9375 C10.05015625 22.97650391 9.7253125 22.01550781 9.390625 21.02539062 C8.59788808 18.68215356 7.80095424 16.34043824 7 14 C6.34 14 5.68 14 5 14 Z " fill="#4E4E4D" transform="translate(103,1042)"/>
<path d="M0 0 C3.96 0 7.92 0 12 0 C15.50786314 8.47578924 18.49128304 17.09484977 21.421875 25.78125 C21.93167005 27.28679521 22.44162153 28.79228746 22.95172119 30.29772949 C24.01243456 33.43029806 25.07114204 36.56353528 26.12841797 39.69726562 C27.48518192 43.71806599 28.84722883 47.73705406 30.21076584 51.75556183 C31.26122575 54.85338626 32.30883028 57.95217035 33.35556793 61.05125427 C33.85704223 62.53477119 34.35943414 64.01797825 34.86275482 65.50086975 C35.56214463 67.56275704 36.25766211 69.62590998 36.95214844 71.68945312 C37.54694 73.44956726 37.54694 73.44956726 38.15374756 75.24523926 C39 78 39 78 39 80 C35.7 80 32.4 80 29 80 C25.75731773 72.07344333 22.84980957 64.07446043 20 56 C6.14 55.505 6.14 55.505 -8 55 C-8.33 56.98 -8.66 58.96 -9 61 C-9.42159654 62.50685842 -9.87833826 64.00447093 -10.375 65.48828125 C-10.63796875 66.27654297 -10.9009375 67.06480469 -11.171875 67.87695312 C-11.44515625 68.68068359 -11.7184375 69.48441406 -12 70.3125 C-12.27328125 71.13556641 -12.5465625 71.95863281 -12.828125 72.80664062 C-14.86634317 78.86634317 -14.86634317 78.86634317 -16 80 C-17.68608966 80.07205511 -19.37500659 80.08386068 -21.0625 80.0625 C-22.44115234 80.04896484 -22.44115234 80.04896484 -23.84765625 80.03515625 C-24.55792969 80.02355469 -25.26820313 80.01195312 -26 80 C-24.34113691 71.26303454 -21.42284392 62.9843287 -18.5546875 54.58984375 C-18.01904966 53.01100851 -17.4838289 51.43203172 -16.94900513 49.85292053 C-15.54921293 45.72356717 -14.1438105 41.59614522 -12.73718262 37.46911621 C-11.29922239 33.2468513 -9.86664322 29.02276172 -8.43359375 24.79882812 C-5.62762308 16.53076918 -2.81571567 8.26474531 0 0 Z M6 13 C4.57191631 17.09206747 3.14785715 21.18550604 1.72753906 25.28027344 C1.24362265 26.67356297 0.7586014 28.06646928 0.27246094 29.45898438 C-0.42542506 31.4586414 -1.1193484 33.45963523 -1.8125 35.4609375 C-2.23144531 36.66540527 -2.65039062 37.86987305 -3.08203125 39.11083984 C-4.10093713 41.81243568 -4.10093713 41.81243568 -4 44 C2.93 44 9.86 44 17 44 C13.7 33.77 10.4 23.54 7 13 C6.67 13 6.34 13 6 13 Z " fill="#4E4E4D" transform="translate(620,1042)"/>
<path d="M0 0 C4.32180129 3.03242411 7.27939218 6.03891171 9.80859375 10.67578125 C9.80859375 11.33578125 9.80859375 11.99578125 9.80859375 12.67578125 C6.83859375 13.99578125 3.86859375 15.31578125 0.80859375 16.67578125 C-0.01640625 15.58265625 -0.84140625 14.48953125 -1.69140625 13.36328125 C-6.09558375 8.25608951 -10.4981995 6.97985298 -17.06640625 6.23828125 C-22.05451916 6.47487159 -27.0557416 7.86943738 -31.19140625 10.67578125 C-34.93729617 16.08097963 -35.78152245 19.96411673 -35.6875 26.4609375 C-35.68895523 27.28025253 -35.69041046 28.09956757 -35.69190979 28.94371033 C-35.69025868 30.66571633 -35.67878624 32.3877383 -35.65795898 34.10961914 C-35.62894773 36.73452814 -35.63737734 39.35742053 -35.65039062 41.98242188 C-35.64415365 43.66277016 -35.63576303 45.34311211 -35.625 47.0234375 C-35.62940346 48.19085228 -35.62940346 48.19085228 -35.63389587 49.3818512 C-35.55114496 54.19484039 -34.79345556 57.4811572 -32.19140625 61.67578125 C-27.52451381 65.52966302 -21.14145306 66.93843187 -15.19140625 66.67578125 C-9.67122256 65.57714763 -5.27515395 63.63577902 -1.19140625 59.67578125 C-0.53140625 58.68578125 0.12859375 57.69578125 0.80859375 56.67578125 C4.21172113 57.73453199 6.82212606 58.68480279 9.80859375 60.67578125 C7.22997641 68.19674849 2.68020865 72.10306307 -4.19140625 75.67578125 C-12.50482895 79.03312503 -22.35993819 78.72417199 -30.80078125 75.8515625 C-37.28643598 72.66172251 -42.70129307 67.52359251 -45.19140625 60.67578125 C-46.38922589 56.49390056 -46.37169337 52.39189329 -46.39453125 48.0703125 C-46.40023132 47.2316716 -46.4059314 46.3930307 -46.4118042 45.52897644 C-46.42123914 43.75460057 -46.42778219 41.9802073 -46.43164062 40.20581055 C-46.44130972 37.5151434 -46.47233182 34.82525248 -46.50390625 32.13476562 C-46.51044077 30.40495242 -46.51568947 28.67513378 -46.51953125 26.9453125 C-46.53187805 26.15123489 -46.54422485 25.35715729 -46.5569458 24.53901672 C-46.52300651 15.86257316 -44.19403413 8.7625789 -38.2265625 2.40234375 C-27.81763583 -6.42826198 -11.45051383 -6.91929446 0 0 Z " fill="#4E4E4D" transform="translate(829.19140625,1045.32421875)"/>
<path d="M0 0 C3.3 0 6.6 0 10 0 C10 26.4 10 52.8 10 80 C6.7 80 3.4 80 0 80 C0 53.6 0 27.2 0 0 Z " fill="#4F4F4E" transform="translate(844,1042)"/>
<path d="M0 0 C4.95 0 9.9 0 15 0 C13.0524784 3.7050411 11.05720225 7.35646624 9 11 C8.48179687 11.97582031 7.96359375 12.95164062 7.4296875 13.95703125 C5.7942714 16.71827727 4.4063312 18.86958272 2 21 C-1.80823415 21.81825572 -5.17294427 21.62284813 -9 21 C-8.38367054 16.04001528 -6.20164371 12.06328034 -3.9375 7.6875 C-3.37192383 6.57665039 -3.37192383 6.57665039 -2.79492188 5.44335938 C-1.86871843 3.62612478 -0.93509371 1.81267596 0 0 Z " fill="#1E1F37" transform="translate(138,852)"/>
<g transform="translate(250, 0)"/></svg>